<?xml version="1.0" encoding="UTF-8" standalone="no"?>
<!DOCTYPE svg PUBLIC "-//W3C//DTD SVG 1.1//EN" "http://www.w3.org/Graphics/SVG/1.1/DTD/svg11.dtd">
<svg width="100%" height="100%" viewBox="0 0 512 512" version="1.1" xmlns="http://www.w3.org/2000/svg" xmlns:xlink="http://www.w3.org/1999/xlink" xml:space="preserve" xmlns:serif="http://www.serif.com/" style="fill-rule:evenodd;clip-rule:evenodd;stroke-linejoin:round;stroke-miterlimit:2;">
    <path d="M353.917,459.265L272.314,506.379C262.219,512.207 249.781,512.207 239.686,506.379L47.322,395.317C37.228,389.489 31.009,378.718 31.009,367.061L31.009,144.939C31.009,133.282 37.228,122.511 47.322,116.683L239.686,5.621C249.781,-0.207 262.219,-0.207 272.314,5.621L464.678,116.683C474.772,122.511 480.991,133.282 480.991,144.939L480.991,367.061C480.991,378.718 474.772,389.489 464.678,395.317L389.287,438.844L355.636,385.443C330.638,355.966 310.014,323.733 294.433,288.322L270.66,250.597L331.273,212.401L296.452,148.301C296.452,148.301 262.877,139.655 201.144,178.557C139.412,217.458 132.723,251.477 132.723,251.477L175.52,310.551L236.133,272.354L259.906,310.08C283.609,337.006 303.857,369.631 321.109,407.201L353.917,459.265ZM440.991,362.805L402.613,384.962C402.613,384.962 389.477,364.118 389.477,364.118C388.474,362.526 387.36,361.007 386.143,359.571C363.652,333.052 345.064,304.072 331.046,272.213C330.252,270.408 329.326,268.664 328.275,266.996L325.827,263.112C325.827,263.112 352.599,246.242 352.599,246.242C370.44,234.999 376.488,211.837 366.422,193.306L331.6,129.207C326.299,119.449 317.181,112.334 306.427,109.565C306.427,109.565 260.938,93.597 179.819,144.715C98.7,195.834 93.474,243.76 93.474,243.76C91.332,254.656 93.815,265.952 100.33,274.945L143.128,334.018C155.5,351.095 179.005,355.634 196.846,344.392L223.617,327.521C223.617,327.521 226.065,331.405 226.065,331.405C227.199,333.205 228.476,334.912 229.882,336.51C251.187,360.712 269.251,390.124 284.758,423.893C285.492,425.491 286.33,427.039 287.267,428.527L297.909,445.413L256,469.609L71.009,362.805L71.009,149.195L256,42.391L440.991,149.195L440.991,362.805Z" style="fill:white;"/>
</svg>
