<?xml version="1.0" encoding="UTF-8" standalone="no"?>
<!DOCTYPE svg PUBLIC "-//W3C//DTD SVG 1.1//EN" "http://www.w3.org/Graphics/SVG/1.1/DTD/svg11.dtd">
<svg width="100%" height="100%" viewBox="0 0 444 512" version="1.1" xmlns="http://www.w3.org/2000/svg" xmlns:xlink="http://www.w3.org/1999/xlink" xml:space="preserve" xmlns:serif="http://www.serif.com/" style="fill-rule:evenodd;clip-rule:evenodd;stroke-linejoin:round;stroke-miterlimit:2;">
    <g transform="matrix(1,0,0,1,-34.3222,-3.73035e-14)">
        <g id="Logo" transform="matrix(1.05992,0,0,1.05992,-15.3404,-15.3387)">
            <path id="D20" d="M256,14.471L465.145,135.221L465.145,376.721L256,497.471L46.855,376.721L46.855,135.221L256,14.471ZM254,399.235L254,488.472L61.021,377.02L254,399.235ZM190.027,109.685L255.972,23.393L304.457,88.955C306.386,89.161 308.218,89.399 309.956,89.66L263.321,26.6L456.188,137.955L376.648,179.844L346.859,139.562L348.841,146.624L349.903,150.407L372.095,180.414L358.326,180.414L359.396,184.226L359.447,184.414L373.077,184.414L309.228,298.365C309.746,300.168 310.273,301.954 310.809,303.726L376.27,186.898L457.414,372.258L344.162,385.292L345.49,389.164L450.98,377.02L258,488.472L258,399.235L266.721,398.231L266.257,396.228L265.809,394.309L259.656,395.018L264.086,387.112C263.618,385.194 263.149,383.304 262.679,381.441L255.975,393.406L180.975,263.416L177.144,264.767L252.317,395.034L54.546,372.249L116.025,225.542L113.811,220.477L53.673,363.984L53.673,141.427L103.571,169.019C104.072,168.207 104.62,167.417 105.215,166.654C105.448,166.358 105.686,166.058 105.932,165.753L55.738,138.007L248.349,26.791L182.685,112.715C185.067,111.698 187.514,110.687 190.027,109.685ZM458.327,141.357L458.327,364.375L379.067,183.313L458.327,141.357Z" style="fill:white;"/>
            <g id="Mallet" transform="matrix(0.970786,-0.341686,0.341686,0.970786,-101.811,29.5805)">
                <path d="M224.39,299.1L224.39,338.974C224.39,339.462 224.429,339.949 224.507,340.43C230.641,378.561 230.32,419.901 224.47,464.025C224.417,464.424 224.39,464.827 224.39,465.23L224.39,492.776C224.39,497.839 228.495,501.944 233.558,501.944L278.442,501.944C283.505,501.944 287.61,497.839 287.61,492.776L287.61,465.23C287.61,464.798 287.579,464.368 287.519,463.941C281.667,422.735 281.374,381.53 287.51,340.325C287.576,339.878 287.61,339.426 287.61,338.974L287.61,299.1C287.61,299.1 357.237,299.1 357.237,299.1C362.07,299.1 366.073,295.348 366.385,290.525L371.57,210.465C371.734,207.925 370.836,205.431 369.089,203.58C369.089,203.58 341.491,172.973 256,172.973C170.509,172.973 142.911,203.58 142.911,203.58C141.164,205.431 140.266,207.925 140.43,210.465L145.615,290.525C145.927,295.348 149.93,299.1 154.763,299.1L224.39,299.1ZM233.558,289.933L154.763,289.933L149.578,209.872C149.578,209.872 175.75,182.14 256,182.14C336.25,182.14 362.422,209.872 362.422,209.872L357.237,289.933L278.442,289.933L278.442,338.974C272.176,381.059 272.466,423.145 278.442,465.23L278.442,492.776L233.558,492.776L233.558,465.23C239.534,420.156 239.824,377.926 233.558,338.974L233.558,289.933Z" style="fill:white;"/>
            </g>
        </g>
    </g>
</svg>
